<?xml version="1.0" encoding="UTF-8"?>
<svg xmlns="http://www.w3.org/2000/svg" xmlns:xlink="http://www.w3.org/1999/xlink" x="0px" y="0px" viewBox="0 0 735.07 218.93"  version="1.1">
<defs>
<clipPath id="clip1">
  <path d="M 397 0 L 617 0 L 617 218.929688 L 397 218.929688 Z M 397 0 "/>
</clipPath>
<clipPath id="clip2">
  <path d="M 625 3 L 735.070313 3 L 735.070313 215 L 625 215 Z M 625 3 "/>
</clipPath>
</defs>
<g id="surface1">
<g clip-path="url(#clip1)" clip-rule="nonzero">
<path style=" stroke:none;fill-rule:nonzero;fill:rgb(9.799194%,60.398865%,71.398926%);fill-opacity:1;" d="M 397.902344 109.464844 C 397.902344 49.007813 446.90625 0.00390625 507.363281 0.00390625 C 567.824219 0.00390625 616.835938 49.007813 616.835938 109.464844 C 616.835938 169.914063 567.824219 218.929688 507.363281 218.929688 C 446.90625 218.929688 397.902344 169.914063 397.902344 109.464844 Z M 469.3125 109.464844 C 469.3125 130.484375 486.347656 147.527344 507.363281 147.527344 C 528.382813 147.527344 545.429688 130.484375 545.429688 109.464844 C 545.429688 88.445313 528.382813 71.402344 507.363281 71.402344 C 486.347656 71.402344 469.3125 88.445313 469.3125 109.464844 "/>
</g>
<g clip-path="url(#clip2)" clip-rule="nonzero">
<path style=" stroke:none;fill-rule:nonzero;fill:rgb(9.799194%,60.398865%,71.398926%);fill-opacity:1;" d="M 735.066406 214.1875 L 666.332031 214.1875 L 666.332031 77.460938 L 625.691406 77.460938 L 625.691406 30.960938 C 650.371094 29.757813 669.238281 20.632813 673.242188 3.585938 L 735.066406 3.585938 L 735.066406 214.1875 "/>
</g>
<path style=" stroke:none;fill-rule:nonzero;fill:rgb(9.799194%,60.398865%,71.398926%);fill-opacity:1;" d="M 370.375 214.1875 L 301.636719 214.1875 L 301.636719 77.460938 L 261.003906 77.460938 L 261.003906 30.960938 C 285.675781 29.757813 304.539063 20.632813 308.554688 3.585938 L 370.375 3.585938 L 370.375 214.1875 "/>
<path style=" stroke:none;fill-rule:evenodd;fill:rgb(9.799194%,60.398865%,71.398926%);fill-opacity:1;" d="M 106.886719 92.96875 L 103.480469 83.316406 L 100.0625 92.96875 L 88.867188 125.75 L 118.832031 125.75 Z M 150.070313 214.367188 L 134.613281 170.539063 L 72.339844 170.539063 L 56.886719 214.367188 L 0 214.367188 L 80.527344 4.046875 L 128.128906 4.046875 L 208.046875 214.367188 L 150.070313 214.367188 "/>
<path style=" stroke:none;fill-rule:nonzero;fill:rgb(9.799194%,60.398865%,71.398926%);fill-opacity:1;" d="M 201.710938 132.429688 C 201.710938 153.449219 218.75 170.488281 239.773438 170.488281 C 260.789063 170.488281 277.828125 153.449219 277.828125 132.429688 C 277.828125 111.410156 260.789063 94.371094 239.773438 94.371094 C 218.75 94.371094 201.710938 111.410156 201.710938 132.429688 "/>
</g>
</svg>
