<?xml version="1.0" encoding="UTF-8"?>
<svg xmlns="http://www.w3.org/2000/svg" xmlns:xlink="http://www.w3.org/1999/xlink"  x="0px" y="0px"  viewBox="0 0 142 142" version="1.1">
<g id="surface1">
<path style=" stroke:none;fill-rule:evenodd;fill:rgb(92.89856%,10.998535%,14.099121%);fill-opacity:1;" d="M 116.902344 78.101563 L 27.21875 78.101563 C 17.527344 78.101563 9.597656 70.171875 9.597656 60.476563 L 9.597656 35.9375 C 9.597656 26.246094 17.527344 18.3125 27.21875 18.3125 L 60.855469 18.3125 L 67.460938 28.4375 L 74.453125 18.3125 L 116.902344 18.3125 C 126.59375 18.3125 134.523438 26.246094 134.523438 35.9375 L 134.523438 60.476563 C 134.523438 70.171875 126.59375 78.101563 116.902344 78.101563 Z M 132.242188 120.109375 L 11.78125 120.109375 C 10.652344 120.109375 9.726563 119.308594 9.726563 118.328125 C 9.726563 117.347656 10.652344 116.542969 11.78125 116.542969 L 132.242188 116.542969 C 133.375 116.542969 134.300781 117.347656 134.300781 118.328125 C 134.300781 119.308594 133.371094 120.109375 132.242188 120.109375 Z M 132.242188 99.941406 L 11.78125 99.941406 C 10.652344 99.941406 9.726563 99.140625 9.726563 98.160156 C 9.726563 97.179688 10.652344 96.375 11.78125 96.375 L 132.242188 96.375 C 133.375 96.375 134.300781 97.179688 134.300781 98.160156 C 134.300781 99.140625 133.371094 99.941406 132.242188 99.941406 "/>
<path style=" stroke:none;fill-rule:evenodd;fill:rgb(100%,100%,100%);fill-opacity:1;" d="M 53.707031 56.28125 C 53.902344 52.058594 51.371094 49.761719 48.695313 48.390625 C 51.441406 46.519531 53.132813 43.6875 52.703125 39.492188 C 51.890625 31.515625 45.652344 29.746094 37.921875 29.59375 C 33.679688 29.511719 27.4375 29.34375 23.886719 30.222656 L 23.886719 65.929688 C 27.9375 66.753906 31.984375 66.796875 36.039063 66.808594 C 46.246094 66.832031 53.339844 64.308594 53.707031 56.28125 Z M 73.003906 66.054688 L 62.101563 66.054688 L 62.101563 30.222656 L 73.003906 30.222656 Z M 101.96875 66.105469 L 111.191406 45.980469 L 111.59375 66.179688 L 122.242188 66.179688 L 119.609375 30.347656 L 108.585938 30.347656 L 102.195313 47.011719 L 95.929688 30.222656 L 85.15625 30.222656 L 81.269531 66.179688 L 91.796875 66.179688 L 93.75 46.109375 Z M 34.683594 45.121094 L 38.957031 45.121094 C 41.027344 45.121094 42.71875 43.429688 42.71875 41.359375 C 42.71875 39.292969 41.023438 37.601563 38.957031 37.601563 L 34.683594 37.601563 Z M 34.683594 58.382813 L 39.519531 58.382813 C 41.503906 58.382813 43.757813 57.027344 43.757813 55.214844 C 43.757813 53.472656 41.585938 52.042969 39.519531 52.042969 L 34.683594 52.042969 L 34.683594 58.382813 "/>
<path style=" stroke:none;fill-rule:evenodd;fill:rgb(13.699341%,12.199402%,12.5%);fill-opacity:1;" d="M 21.433594 83.605469 L 21.433594 85.273438 L 19.652344 85.273438 L 19.652344 93.074219 L 17.804688 93.074219 L 17.804688 85.273438 L 16.023438 85.273438 L 16.023438 83.605469 Z M 24.800781 88.257813 C 24.800781 88.664063 24.867188 89.042969 25.003906 89.394531 C 25.136719 89.746094 25.335938 90.066406 25.597656 90.359375 C 25.890625 90.671875 26.21875 90.917969 26.589844 91.089844 C 26.957031 91.257813 27.339844 91.34375 27.730469 91.34375 C 28.5625 91.34375 29.257813 91.050781 29.816406 90.460938 C 30.378906 89.871094 30.660156 89.136719 30.660156 88.257813 C 30.660156 87.449219 30.378906 86.761719 29.8125 86.191406 C 29.246094 85.621094 28.566406 85.335938 27.773438 85.335938 C 26.945313 85.335938 26.242188 85.621094 25.664063 86.1875 C 25.089844 86.757813 24.800781 87.445313 24.800781 88.257813 Z M 22.855469 88.320313 C 22.855469 87.800781 22.925781 87.3125 23.066406 86.847656 C 23.203125 86.386719 23.410156 85.957031 23.683594 85.550781 C 24.148438 84.871094 24.738281 84.347656 25.445313 83.976563 C 26.148438 83.605469 26.921875 83.417969 27.757813 83.417969 C 28.386719 83.417969 28.992188 83.539063 29.578125 83.78125 C 30.160156 84.023438 30.679688 84.375 31.140625 84.832031 C 31.613281 85.300781 31.972656 85.832031 32.21875 86.421875 C 32.464844 87.011719 32.589844 87.632813 32.589844 88.28125 C 32.589844 88.957031 32.472656 89.59375 32.242188 90.1875 C 32.011719 90.78125 31.667969 91.308594 31.21875 91.765625 C 30.761719 92.25 30.234375 92.617188 29.628906 92.875 C 29.023438 93.132813 28.390625 93.261719 27.730469 93.261719 C 27.027344 93.261719 26.375 93.136719 25.78125 92.886719 C 25.1875 92.636719 24.664063 92.261719 24.203125 91.765625 C 23.761719 91.296875 23.425781 90.773438 23.199219 90.191406 C 22.96875 89.609375 22.855469 88.984375 22.855469 88.320313 Z M 36.578125 87.839844 L 37.066406 87.839844 C 37.578125 87.839844 37.976563 87.726563 38.253906 87.503906 C 38.527344 87.28125 38.664063 86.960938 38.664063 86.546875 C 38.664063 86.117188 38.53125 85.796875 38.265625 85.585938 C 38 85.375 37.59375 85.273438 37.050781 85.273438 L 36.578125 85.273438 Z M 36.578125 93.074219 L 34.722656 93.074219 L 34.722656 83.605469 L 37.078125 83.605469 C 37.675781 83.605469 38.148438 83.640625 38.492188 83.703125 C 38.835938 83.769531 39.113281 83.875 39.328125 84.019531 C 39.714844 84.28125 40.023438 84.628906 40.246094 85.0625 C 40.46875 85.496094 40.582031 85.960938 40.582031 86.453125 C 40.582031 87.359375 40.28125 88.085938 39.683594 88.628906 C 39.085938 89.167969 38.28125 89.4375 37.265625 89.4375 L 36.578125 89.4375 Z M 47.246094 83.605469 L 47.246094 85.273438 L 45.460938 85.273438 L 45.460938 93.074219 L 43.617188 93.074219 L 43.617188 85.273438 L 41.835938 85.273438 L 41.835938 83.605469 Z M 52.816406 89.335938 L 51.699219 86.285156 L 50.554688 89.335938 Z M 49.917969 91.089844 L 49.183594 93.074219 L 47.261719 93.074219 L 50.9375 83.605469 L 52.535156 83.605469 L 56.15625 93.074219 L 54.175781 93.074219 L 53.429688 91.089844 Z M 59.351563 93.074219 L 57.53125 93.074219 L 57.53125 83.605469 L 59.285156 83.605469 L 63.199219 89.65625 L 63.199219 83.605469 L 65.011719 83.605469 L 65.011719 93.074219 L 63.296875 93.074219 L 59.351563 86.84375 Z M 73.246094 93.074219 L 73.246094 83.605469 L 78.355469 83.605469 L 78.355469 85.273438 L 75.078125 85.273438 L 75.078125 87.429688 L 78.355469 87.429688 L 78.355469 89.070313 L 75.078125 89.070313 L 75.078125 93.074219 Z M 80.628906 93.074219 L 80.628906 83.605469 L 82.480469 83.605469 L 82.480469 93.074219 Z M 80.867188 82.4375 L 80.867188 80.878906 L 82.265625 80.878906 L 82.265625 82.4375 Z M 88.425781 89.667969 L 88.425781 93.074219 L 86.574219 93.074219 L 86.574219 89.667969 L 83.859375 83.605469 L 85.894531 83.605469 L 87.535156 87.683594 L 89.160156 83.605469 L 91.183594 83.605469 Z M 96.363281 89.335938 L 95.246094 86.285156 L 94.101563 89.335938 Z M 93.464844 91.089844 L 92.730469 93.074219 L 90.808594 93.074219 L 94.484375 83.605469 L 96.082031 83.605469 L 99.707031 93.074219 L 97.722656 93.074219 L 96.976563 91.089844 Z M 105.246094 83.605469 L 105.246094 85.273438 L 103.464844 85.273438 L 103.464844 93.074219 L 101.617188 93.074219 L 101.617188 85.273438 L 99.835938 85.273438 L 99.835938 83.605469 Z M 107.097656 93.074219 L 107.097656 83.605469 L 108.949219 83.605469 L 108.949219 93.074219 Z M 113.320313 93.074219 L 111.5 93.074219 L 111.5 83.605469 L 113.257813 83.605469 L 117.171875 89.65625 L 117.171875 83.605469 L 118.984375 83.605469 L 118.984375 93.074219 L 117.265625 93.074219 L 113.320313 86.84375 Z M 125.808594 89.335938 L 124.691406 86.285156 L 123.546875 89.335938 Z M 122.910156 91.089844 L 122.175781 93.074219 L 120.257813 93.074219 L 123.929688 83.605469 L 125.527344 83.605469 L 129.152344 93.074219 L 127.167969 93.074219 L 126.421875 91.089844 Z M 18.578125 107.871094 L 19.066406 107.871094 C 19.582031 107.871094 19.980469 107.757813 20.253906 107.535156 C 20.53125 107.3125 20.667969 106.992188 20.667969 106.578125 C 20.667969 106.148438 20.535156 105.828125 20.269531 105.617188 C 20 105.40625 19.59375 105.300781 19.054688 105.300781 L 18.578125 105.300781 Z M 18.578125 113.105469 L 16.726563 113.105469 L 16.726563 103.636719 L 19.082031 103.636719 C 19.675781 103.636719 20.152344 103.671875 20.492188 103.734375 C 20.839844 103.800781 21.117188 103.90625 21.332031 104.046875 C 21.71875 104.3125 22.027344 104.660156 22.25 105.09375 C 22.472656 105.527344 22.585938 105.992188 22.585938 106.484375 C 22.585938 107.390625 22.285156 108.117188 21.6875 108.65625 C 21.089844 109.199219 20.285156 109.46875 19.269531 109.46875 L 18.578125 109.46875 Z M 29.652344 113.105469 L 24.539063 113.105469 L 24.539063 103.636719 L 29.652344 103.636719 L 29.652344 105.300781 L 26.375 105.300781 L 26.375 107.460938 L 29.652344 107.460938 L 29.652344 109.097656 L 26.375 109.097656 L 26.375 111.441406 L 29.652344 111.441406 Z M 34.019531 108.242188 L 34.429688 108.242188 C 35.179688 108.242188 35.75 108.105469 36.136719 107.835938 C 36.527344 107.5625 36.71875 107.167969 36.71875 106.648438 C 36.71875 106.144531 36.554688 105.773438 36.230469 105.535156 C 35.90625 105.296875 35.398438 105.179688 34.707031 105.179688 L 34.019531 105.179688 Z M 34.019531 113.105469 L 32.167969 113.105469 L 32.167969 103.636719 L 34.417969 103.636719 C 35.132813 103.636719 35.664063 103.664063 36.011719 103.714844 C 36.359375 103.761719 36.65625 103.84375 36.90625 103.957031 C 37.445313 104.207031 37.855469 104.558594 38.136719 105.007813 C 38.417969 105.460938 38.558594 105.988281 38.558594 106.597656 C 38.558594 107.328125 38.355469 107.949219 37.953125 108.457031 C 37.550781 108.96875 37.003906 109.292969 36.308594 109.429688 L 38.675781 113.105469 L 36.464844 113.105469 L 34.019531 108.707031 Z M 44.980469 109.367188 L 43.859375 106.316406 L 42.71875 109.367188 Z M 42.082031 111.121094 L 41.347656 113.105469 L 39.425781 113.105469 L 43.101563 103.636719 L 44.699219 103.636719 L 48.320313 113.105469 L 46.335938 113.105469 L 45.589844 111.121094 Z M 51.574219 108.40625 L 54.433594 103.636719 L 56.492188 103.636719 L 53.457031 108.339844 L 56.492188 113.105469 L 54.433594 113.105469 Z M 51.546875 113.105469 L 49.695313 113.105469 L 49.695313 103.636719 L 51.546875 103.636719 Z M 63.179688 113.105469 L 58.066406 113.105469 L 58.066406 103.636719 L 63.179688 103.636719 L 63.179688 105.300781 L 59.902344 105.300781 L 59.902344 107.460938 L 63.179688 107.460938 L 63.179688 109.097656 L 59.902344 109.097656 L 59.902344 111.441406 L 63.179688 111.441406 Z M 67.511719 113.105469 L 65.695313 113.105469 L 65.695313 103.636719 L 67.449219 103.636719 L 71.363281 109.683594 L 71.363281 103.636719 L 73.175781 103.636719 L 73.175781 113.105469 L 71.457031 113.105469 L 67.511719 106.875 Z M 78.835938 111.480469 C 79.859375 111.480469 80.617188 111.230469 81.101563 110.726563 C 81.589844 110.222656 81.828125 109.4375 81.828125 108.363281 C 81.828125 107.382813 81.5625 106.617188 81.03125 106.070313 C 80.503906 105.523438 79.757813 105.25 78.808594 105.25 L 77.597656 105.25 L 77.597656 111.480469 Z M 78.949219 113.105469 L 75.730469 113.105469 L 75.730469 103.636719 L 78.898438 103.636719 C 79.757813 103.636719 80.441406 103.722656 80.960938 103.898438 C 81.472656 104.070313 81.941406 104.359375 82.363281 104.769531 C 82.8125 105.203125 83.148438 105.726563 83.378906 106.34375 C 83.605469 106.957031 83.722656 107.648438 83.722656 108.417969 C 83.722656 109.273438 83.5625 110.042969 83.242188 110.722656 C 82.921875 111.402344 82.457031 111.957031 81.84375 112.398438 C 81.496094 112.652344 81.109375 112.835938 80.679688 112.941406 C 80.25 113.050781 79.675781 113.105469 78.949219 113.105469 Z M 90.929688 113.105469 L 85.820313 113.105469 L 85.820313 103.636719 L 90.929688 103.636719 L 90.929688 105.300781 L 87.652344 105.300781 L 87.652344 107.460938 L 90.929688 107.460938 L 90.929688 109.097656 L 87.652344 109.097656 L 87.652344 111.441406 L 90.929688 111.441406 Z M 97.21875 110.167969 L 98.90625 110.160156 L 98.90625 110.296875 C 98.90625 110.695313 99.011719 111.015625 99.222656 111.253906 C 99.425781 111.496094 99.703125 111.617188 100.050781 111.617188 C 100.425781 111.617188 100.71875 111.503906 100.9375 111.28125 C 101.152344 111.058594 101.261719 110.753906 101.261719 110.371094 C 101.261719 109.761719 100.824219 109.324219 99.945313 109.0625 C 99.835938 109.027344 99.746094 108.996094 99.679688 108.976563 C 98.945313 108.746094 98.398438 108.421875 98.042969 108 C 97.6875 107.574219 97.511719 107.039063 97.511719 106.394531 C 97.511719 105.507813 97.757813 104.792969 98.246094 104.253906 C 98.738281 103.71875 99.394531 103.449219 100.214844 103.449219 C 100.980469 103.449219 101.589844 103.6875 102.046875 104.167969 C 102.5 104.644531 102.757813 105.316406 102.808594 106.179688 L 101.128906 106.179688 L 101.128906 106.101563 C 101.128906 105.796875 101.039063 105.554688 100.855469 105.367188 C 100.675781 105.179688 100.4375 105.085938 100.140625 105.085938 C 99.839844 105.085938 99.601563 105.183594 99.425781 105.375 C 99.25 105.5625 99.160156 105.824219 99.160156 106.152344 C 99.160156 106.292969 99.179688 106.414063 99.214844 106.519531 C 99.253906 106.628906 99.308594 106.722656 99.386719 106.808594 C 99.566406 107.003906 99.945313 107.183594 100.53125 107.351563 C 100.792969 107.417969 100.992188 107.476563 101.132813 107.527344 C 101.78125 107.746094 102.261719 108.0625 102.570313 108.476563 C 102.878906 108.886719 103.035156 109.414063 103.035156 110.054688 C 103.035156 111.03125 102.765625 111.8125 102.222656 112.40625 C 101.683594 113 100.960938 113.292969 100.0625 113.292969 C 99.21875 113.292969 98.539063 113.007813 98.015625 112.433594 C 97.496094 111.863281 97.230469 111.105469 97.21875 110.167969 Z M 109.652344 109.367188 L 108.535156 106.316406 L 107.390625 109.367188 Z M 106.753906 111.121094 L 106.019531 113.105469 L 104.101563 113.105469 L 107.773438 103.636719 L 109.371094 103.636719 L 112.996094 113.105469 L 111.011719 113.105469 L 110.265625 111.121094 Z M 118.535156 103.636719 L 118.535156 105.300781 L 116.753906 105.300781 L 116.753906 113.105469 L 114.90625 113.105469 L 114.90625 105.300781 L 113.125 105.300781 L 113.125 103.636719 Z M 120.386719 113.105469 L 120.386719 103.636719 L 122.238281 103.636719 L 122.238281 113.105469 Z M 124.21875 110.167969 L 125.910156 110.160156 L 125.910156 110.296875 C 125.910156 110.695313 126.011719 111.015625 126.222656 111.253906 C 126.429688 111.496094 126.703125 111.617188 127.050781 111.617188 C 127.425781 111.617188 127.71875 111.503906 127.9375 111.28125 C 128.152344 111.058594 128.261719 110.753906 128.261719 110.371094 C 128.261719 109.761719 127.824219 109.324219 126.945313 109.0625 C 126.835938 109.027344 126.746094 108.996094 126.679688 108.976563 C 125.945313 108.746094 125.398438 108.421875 125.042969 108 C 124.6875 107.574219 124.511719 107.039063 124.511719 106.394531 C 124.511719 105.507813 124.757813 104.792969 125.246094 104.253906 C 125.738281 103.71875 126.394531 103.449219 127.214844 103.449219 C 127.980469 103.449219 128.589844 103.6875 129.046875 104.167969 C 129.5 104.644531 129.757813 105.316406 129.808594 106.179688 L 128.128906 106.179688 L 128.128906 106.101563 C 128.128906 105.796875 128.039063 105.554688 127.855469 105.367188 C 127.675781 105.179688 127.4375 105.085938 127.140625 105.085938 C 126.839844 105.085938 126.601563 105.183594 126.425781 105.375 C 126.25 105.5625 126.160156 105.824219 126.160156 106.152344 C 126.160156 106.292969 126.179688 106.414063 126.21875 106.519531 C 126.253906 106.628906 126.308594 106.722656 126.386719 106.808594 C 126.566406 107.003906 126.945313 107.183594 127.53125 107.351563 C 127.792969 107.417969 127.992188 107.476563 128.132813 107.527344 C 128.78125 107.746094 129.261719 108.0625 129.570313 108.476563 C 129.878906 108.886719 130.035156 109.414063 130.035156 110.054688 C 130.035156 111.03125 129.765625 111.8125 129.222656 112.40625 C 128.683594 113 127.960938 113.292969 127.066406 113.292969 C 126.21875 113.292969 125.539063 113.007813 125.015625 112.433594 C 124.496094 111.863281 124.230469 111.105469 124.21875 110.167969 Z M 125.496094 115.925781 L 125.496094 115.152344 C 125.855469 115.246094 126.171875 115.316406 126.449219 115.363281 C 126.722656 115.40625 126.957031 115.429688 127.144531 115.429688 C 127.375 115.429688 127.550781 115.386719 127.667969 115.304688 C 127.789063 115.222656 127.847656 115.105469 127.847656 114.941406 C 127.847656 114.761719 127.773438 114.628906 127.628906 114.546875 C 127.484375 114.464844 127.25 114.421875 126.929688 114.421875 C 126.898438 114.421875 126.855469 114.425781 126.792969 114.429688 C 126.730469 114.433594 126.683594 114.4375 126.652344 114.4375 L 126.652344 113.105469 L 127.25 113.105469 L 127.25 113.714844 L 127.347656 113.714844 C 127.859375 113.714844 128.242188 113.820313 128.496094 114.027344 C 128.75 114.234375 128.875 114.550781 128.875 114.96875 C 128.875 115.359375 128.734375 115.664063 128.453125 115.882813 C 128.171875 116.097656 127.769531 116.207031 127.25 116.207031 C 127.011719 116.207031 126.746094 116.179688 126.449219 116.132813 C 126.148438 116.085938 125.832031 116.015625 125.496094 115.925781 "/>
</g>
</svg>
