<svg width="420" height="420" viewBox="0 0 420 420" fill="none" xmlns="http://www.w3.org/2000/svg">
<g id="online-shop-svgrepo-com (1) 1" clip-path="url(#clip0_0_1)">
<g id="Group">
<path id="Vector" d="M390.291 193.931V392.601H28.811V193.931C28.811 181.33 39.021 171.11 51.631 171.11H367.471C380.071 171.111 390.291 181.331 390.291 193.931Z" fill="#808080"/>
<path id="Vector_2" d="M365.291 196.111V367.601H53.811V196.111H365.291Z" fill="#29ABE2"/>
<path id="Vector_3" d="M367.471 171.111H172.051L178.208 191.313H334.651L334.741 194.023L334.813 196.111H365.291V367.601H231.933L238.942 390.601H390.291V193.931C390.291 181.331 380.071 171.111 367.471 171.111Z" fill="#A9A9A9"/>
<path id="Vector_4" d="M257.268 320.293H217.515L218.522 323.597L237.371 326.791C238.37 326.959 239.376 327.042 240.38 327.042C243.433 327.042 246.457 326.271 249.152 324.78L257.268 320.293ZM365.291 196.111H334.813L339.111 320.293H308.203L308.021 320.421L248.191 358.231C243.427 361.238 237.936 362.811 232.368 362.811C231.73 362.811 231.092 362.79 230.453 362.749L231.932 367.601H365.291V196.111Z" fill="#6EC6EB"/>
<path id="Vector_5" d="M178.208 191.313H124.801L124.636 196.111H179.67L178.208 191.313Z" fill="#676767"/>
<path id="Vector_6" d="M179.67 196.111H124.635L122.851 247.813L120.718 309.403C119.585 310.185 118.436 310.946 117.261 311.671L53.811 353.021V367.602H126.311L146.871 354.092C149.316 352.483 152.168 351.634 155.067 351.634C155.807 351.634 156.55 351.689 157.291 351.801L227.961 362.481C228.79 362.606 229.623 362.696 230.454 362.75L218.522 323.598L199.023 320.294H217.515L179.67 196.111Z" fill="#2C84AA"/>
<path id="Vector_7" d="M334.651 191.313H178.208L179.67 196.111H334.813L334.741 194.023L334.651 191.313Z" fill="#838383"/>
<path id="Vector_8" d="M334.813 196.111H179.67L217.515 320.293H257.268L249.151 324.781C246.456 326.272 243.432 327.043 240.379 327.043C239.376 327.043 238.37 326.96 237.37 326.792L218.521 323.598L230.453 362.75C231.092 362.792 231.73 362.812 232.368 362.812C237.936 362.812 243.426 361.239 248.191 358.232L308.021 320.422L308.203 320.294H339.111L334.813 196.111Z" fill="#5B97B0"/>
<path id="Vector_9" d="M339.111 300.091H120.341L122.851 227.611L128.931 51.691H330.521L334.741 173.821L339.111 300.091Z" fill="#F27A1A"/>
<path id="Vector_10" d="M308.021 306.741L248.191 344.551C242.171 348.351 234.991 349.861 227.961 348.801L157.291 338.121C153.651 337.571 149.941 338.391 146.871 340.411L105.491 367.601H53.811V339.341L117.261 297.991C122.331 294.861 127.031 291.191 131.251 287.041C135.471 282.881 139.231 278.261 142.441 273.241C148.081 264.421 157.851 258.991 168.321 259.191C170.701 259.231 173.081 259.491 175.451 259.961L238.351 272.571C243.281 273.561 246.671 277.901 246.671 282.711C246.671 283.531 246.571 284.371 246.361 285.211C245.061 290.431 239.971 293.791 234.661 292.921L195.011 286.481C194.491 286.401 193.971 286.351 193.461 286.351C188.591 286.351 184.371 290.071 183.921 295.081C183.471 300.071 186.931 304.561 191.871 305.401L237.371 313.111C241.411 313.791 245.571 313.081 249.151 311.101L295.451 285.501C297.341 284.461 299.391 283.961 301.411 283.961C305.501 283.961 309.481 285.991 311.831 289.671C315.511 295.431 313.801 303.091 308.021 306.741Z" fill="#FCD18B"/>
<path id="Vector_11" d="M199.924 169.019C189.238 169.019 180.545 160.326 180.545 149.64C180.545 138.954 189.238 130.26 199.924 130.26C210.61 130.26 219.304 138.954 219.304 149.64C219.304 160.326 210.61 169.019 199.924 169.019ZM199.924 138.508C193.786 138.508 188.793 143.502 188.793 149.64C188.793 155.778 193.786 160.771 199.924 160.771C206.062 160.771 211.056 155.778 211.056 149.64C211.056 143.502 206.062 138.508 199.924 138.508Z" fill="white"/>
<path id="Vector_12" d="M259.528 221.527C248.842 221.527 240.148 212.833 240.148 202.147C240.148 191.461 248.842 182.767 259.528 182.767C270.214 182.767 278.908 191.461 278.908 202.147C278.908 212.833 270.213 221.527 259.528 221.527ZM259.528 191.016C253.39 191.016 248.396 196.009 248.396 202.147C248.396 208.285 253.39 213.279 259.528 213.279C265.666 213.279 270.66 208.286 270.66 202.147C270.659 196.009 265.665 191.016 259.528 191.016Z" fill="white"/>
<path id="Vector_13" d="M216.114 223.336L224.204 224.941L243.36 128.433L235.27 126.827L216.114 223.336Z" fill="white"/>
<path id="Vector_14" d="M280.278 87.465C276.74 87.465 273.871 84.597 273.871 81.058V57.788C273.871 33.681 254.89 13.397 230.79 12.826C205.964 12.238 185.58 32.263 185.58 56.959V81.058C185.58 84.596 182.712 87.465 179.173 87.465C175.635 87.465 172.766 84.597 172.766 81.058V57.914C172.766 26.725 197.441 0.601008 228.625 0.010008C260.534 -0.594992 286.684 25.185 286.684 56.958V81.057C286.685 84.596 283.816 87.465 280.278 87.465Z" fill="#F9DE58"/>
<path id="Vector_15" d="M416.541 390.601C416.541 406.341 403.781 419.101 388.041 419.101H31.062C23.192 419.101 16.072 415.912 10.911 410.751C5.75101 405.601 2.561 398.471 2.561 390.601H416.541Z" fill="#4D4D4D"/>
<path id="Vector_16" d="M416.541 390.601H390.291H238.942H211.301L219.991 419.101H388.041C403.781 419.101 416.541 406.341 416.541 390.601Z" fill="#868686"/>
</g>
</g>
<defs>
<clipPath id="clip0_0_1">
<rect width="419.101" height="419.101" fill="white"/>
</clipPath>
</defs>
</svg>
