<svg width="456" height="456" viewBox="0 0 456 456" fill="none" xmlns="http://www.w3.org/2000/svg">
<g id="online-shop-svgrepo-com 1" clip-path="url(#clip0_0_1)">
<g id="Group">
<path id="Vector" d="M426.503 106.763V325.3H28.875V106.763C28.875 92.903 40.106 81.661 53.977 81.661H401.401C415.261 81.661 426.503 92.903 426.503 106.763Z" fill="#808080"/>
<path id="Vector_2" d="M56.371 297.798V109.159H399.001V297.798H56.371Z" fill="white"/>
<path id="Vector_3" d="M321.289 144.99L313.171 153.962L347.726 185.226H233.935L268.49 153.962L260.372 144.99L211.503 189.205L234.041 282.026H256.755H324.907H347.621L370.159 189.205L321.289 144.99ZM284.78 213.386H259.743L257.586 197.326H284.781V213.386H284.78ZM296.88 197.326H324.075L321.918 213.386H296.88V197.326ZM247.534 213.386H229.825L225.926 197.326H245.377L247.534 213.386ZM232.763 225.486H249.159L251.435 242.426H236.876L232.763 225.486ZM261.368 225.486H284.78V242.426H263.643L261.368 225.486ZM296.88 225.486H320.292L318.017 242.426H296.88V225.486ZM332.501 225.486H348.897L344.784 242.426H330.225L332.501 225.486ZM334.126 213.386L336.283 197.326H355.734L351.834 213.386H334.126ZM243.553 269.926L239.814 254.526H253.06L255.129 269.926H243.553ZM265.269 254.526H284.78V269.926H267.337L265.269 254.526ZM296.88 269.926V254.526H316.391L314.322 269.926H296.88ZM326.531 269.926L328.6 254.526H341.846L338.107 269.926H326.531Z" fill="#29ABE2"/>
<path id="Vector_4" d="M194.007 132.976H76.307V159.376H194.007V132.976Z" fill="#CCCCCC"/>
<path id="Vector_5" d="M194.007 171.476H76.307V280.028H194.007V171.476Z" fill="#E6E6E6"/>
<path id="Vector_6" d="M401.401 81.661H186.439L194.819 109.159H399.001V297.798H252.308L260.08 323.3H426.503V106.763C426.503 92.903 415.261 81.661 401.401 81.661Z" fill="#A9A9A9"/>
<path id="Vector_7" d="M253.06 254.526H239.814L242.533 265.722L243.814 269.926H255.129L253.06 254.526ZM284.78 254.526H265.269L267.337 269.926H284.78V254.526V254.526ZM316.391 254.526H296.88V269.926H314.323L316.391 254.526ZM341.846 254.526H328.6L326.531 269.926H338.107L341.846 254.526ZM249.159 225.486H232.763L236.876 242.426H251.435L249.159 225.486ZM284.78 225.486H261.368L263.644 242.426H284.781V225.486H284.78ZM320.292 225.486H296.88V242.426H318.017L320.292 225.486ZM348.898 225.486H332.502L330.226 242.426H344.785L348.898 225.486ZM245.377 197.326H225.926L229.825 213.386H247.534L245.377 197.326ZM284.78 197.326H257.585L259.742 213.386H284.779V197.326H284.78ZM324.075 197.326H296.88V213.386H321.917L324.075 197.326ZM355.735 197.326H336.284L334.127 213.386H351.836L355.735 197.326ZM399.001 109.159H194.819L217.547 183.736L260.371 144.99L268.489 153.962L233.934 185.226H347.725L313.17 153.962L321.288 144.99L370.157 189.205L347.619 282.026H324.905H256.753H247.5L252.307 297.798H399.001V109.159Z" fill="white"/>
<path id="Vector_8" d="M267.337 269.926L265.269 254.526H284.78V269.926H267.337ZM296.88 269.926V254.526H316.391L314.322 269.926H296.88ZM326.531 269.926L328.6 254.526H341.846L338.107 269.926H326.531ZM236.876 242.426L232.763 225.486H249.159L251.435 242.426H236.876ZM263.644 242.426L261.368 225.486H284.78V242.426H263.644ZM296.88 242.426V225.486H320.292L318.017 242.426H296.88ZM330.225 242.426L332.501 225.486H348.897L344.784 242.426H330.225ZM229.825 213.386L225.926 197.326H245.377L247.534 213.386H229.825ZM259.743 213.386L257.586 197.326H284.781V213.386H259.743ZM296.88 213.386V197.326H324.075L321.918 213.386H296.88ZM334.126 213.386L336.283 197.326H355.734L351.834 213.386H334.126ZM321.289 144.99L313.171 153.962L347.726 185.226H233.935L268.49 153.962L260.372 144.99L217.548 183.736L242.534 265.723L239.815 254.527H253.061L255.13 269.927H243.815L247.503 282.027H256.756H324.908H347.622L370.16 189.206L321.289 144.99Z" fill="#6EC6EB"/>
<path id="Vector_9" d="M455.378 323.3C455.378 340.614 441.342 354.65 424.028 354.65H31.35C22.693 354.65 14.861 351.141 9.185 345.465C3.509 339.8 0 331.957 0 323.3H455.378Z" fill="#F27A1A"/>
<path id="Vector_10" d="M132.407 259.676H40.146V368.947H132.407V259.676Z" fill="#F9DE58"/>
<path id="Vector_11" d="M132.407 259.676H108.207V368.576H132.407V259.676Z" fill="#E0BF20"/>
<path id="Vector_12" d="M52.246 259.676H40.146V368.576H52.246V259.676Z" fill="#E0BF20"/>
<path id="Vector_13" d="M171.185 354.646H78.924V373.717H171.185V354.646Z" fill="#F9DE58"/>
<path id="Vector_14" d="M171.185 354.646H146.985V373.652H171.185V354.646Z" fill="#E0BF20"/>
<path id="Vector_15" d="M91.024 354.646H78.924V373.652H91.024V354.646Z" fill="#E0BF20"/>
<path id="Vector_16" d="M455.378 323.3H426.503H260.08H229.614L239.173 354.65H424.028C441.342 354.65 455.378 340.614 455.378 323.3Z" fill="#FDA589"/>
</g>
</g>
<defs>
<clipPath id="clip0_0_1">
<rect width="455.378" height="455.378" fill="white"/>
</clipPath>
</defs>
</svg>
