<svg width="415" height="290" viewBox="0 0 415 290" fill="none" xmlns="http://www.w3.org/2000/svg">
<g id="online-shop-svgrepo-com (1) 1">
<g id="Group">
<path id="Vector" d="M388.291 63.931V262.601H26.811V63.931C26.811 51.33 37.021 41.11 49.631 41.11H365.471C378.071 41.111 388.291 51.331 388.291 63.931Z" fill="#808080"/>
<path id="Vector_2" d="M363.291 66.111V237.601H51.811V66.111H363.291Z" fill="#29ABE2"/>
<path id="Vector_3" d="M365.471 41.111H170.051L176.208 61.313H332.651L332.741 64.023L332.813 66.111H363.291V237.601H229.933L236.942 260.601H388.291V63.931C388.291 51.331 378.071 41.111 365.471 41.111Z" fill="#A9A9A9"/>
<path id="Vector_4" d="M255.268 190.293H215.515L216.522 193.597L235.371 196.791C236.37 196.959 237.376 197.042 238.38 197.042C241.433 197.042 244.457 196.271 247.152 194.78L255.268 190.293ZM363.291 66.111H332.813L337.111 190.293H306.203L306.021 190.421L246.191 228.231C241.427 231.238 235.936 232.811 230.368 232.811C229.73 232.811 229.092 232.79 228.453 232.749L229.932 237.601H363.291V66.111Z" fill="#6EC6EB"/>
<path id="Vector_5" d="M176.208 61.313H122.801L122.636 66.111H177.67L176.208 61.313Z" fill="#676767"/>
<path id="Vector_6" d="M332.651 61.313H176.208L177.67 66.111H332.813L332.741 64.023L332.651 61.313Z" fill="#838383"/>
<path id="Vector_7" d="M197.924 39.019C187.238 39.019 178.545 30.326 178.545 19.64C178.545 8.95401 187.238 0.26001 197.924 0.26001C208.61 0.26001 217.304 8.95401 217.304 19.64C217.304 30.326 208.61 39.019 197.924 39.019ZM197.924 8.50801C191.786 8.50801 186.793 13.502 186.793 19.64C186.793 25.778 191.786 30.771 197.924 30.771C204.062 30.771 209.056 25.778 209.056 19.64C209.056 13.502 204.062 8.50801 197.924 8.50801Z" fill="white"/>
<path id="Vector_8" d="M414.541 260.601C414.541 276.341 401.781 289.101 386.041 289.101H29.062C21.192 289.101 14.072 285.912 8.91101 280.751C3.75101 275.601 0.561005 268.471 0.561005 260.601H414.541Z" fill="#4D4D4D"/>
<path id="Vector_9" d="M414.541 260.601H388.291H236.942H209.301L217.991 289.101H386.041C401.781 289.101 414.541 276.341 414.541 260.601Z" fill="#868686"/>
</g>
<g id="page">
<g id="online-shop-ecommerce-svgrepo-com 1" clip-path="url(#clip0_0_1)">
<path id="Vector_10" d="M53.9584 112.994V230.625C53.9584 234.681 60.2396 238 67.9167 238H347.083C354.76 238 361.042 234.681 361.042 230.625V112.994H53.9584Z" fill="#F2F2F2"/>
<g id="Group_2">
<path id="Vector_11" d="M209.594 145.444V162.775C208.896 162.775 208.198 162.775 207.5 162.775C206.802 162.775 206.104 162.775 205.406 162.775V145.444H209.594Z" fill="white"/>
<path id="Vector_12" d="M209.594 213.294V230.625H206.104V213.294C206.802 213.294 207.5 213.294 208.198 213.294C208.896 213.294 208.896 213.294 209.594 213.294Z" fill="white"/>
<path id="Vector_13" d="M266.125 158.719L243.094 170.888C242.396 170.519 241.698 169.781 240.302 169.413L264.031 157.244L266.125 158.719Z" fill="white"/>
<path id="Vector_14" d="M175.396 206.656L151.666 218.825L148.874 217.719L171.906 205.55C173.302 205.919 174 206.288 175.396 206.656Z" fill="white"/>
<path id="Vector_15" d="M288.459 187.112V188.956H255.657C255.657 188.587 255.657 188.218 255.657 188.218C255.657 187.85 255.657 187.481 255.657 187.112H288.459V187.112Z" fill="white"/>
<path id="Vector_16" d="M160.041 188.219C160.041 188.588 160.041 188.956 160.041 188.956H127.239V187.113H160.041C160.041 187.481 160.041 187.85 160.041 188.219Z" fill="white"/>
<path id="Vector_17" d="M266.125 217.719L263.333 219.194L239.604 206.656C240.302 206.288 241.698 205.919 242.396 205.181L266.125 217.719Z" fill="white"/>
<path id="Vector_18" d="M175.396 169.781C174.698 170.15 173.302 170.519 172.604 171.256L148.874 158.719L151.666 157.244L175.396 169.781Z" fill="white"/>
<path id="Vector_19" d="M190.75 164.619C189.354 164.619 188.656 164.987 187.261 165.356L179.584 155.4L183.073 154.662L190.75 164.619Z" fill="white"/>
<path id="Vector_20" d="M235.416 221.038L231.927 221.775L224.25 211.819C225.646 211.45 226.344 211.45 227.739 211.081L235.416 221.038Z" fill="white"/>
<path id="Vector_21" d="M164.229 177.894C163.531 178.263 163.531 179 162.833 179.737L143.99 175.681L145.386 173.838L164.229 177.894Z" fill="white"/>
<path id="Vector_22" d="M271.01 201.125L269.614 202.969L250.771 198.912C251.469 198.543 251.469 197.806 252.167 197.069L271.01 201.125Z" fill="white"/>
<path id="Vector_23" d="M164.229 198.544L145.386 202.6L143.99 200.756L162.833 196.7C162.833 197.437 163.531 198.175 164.229 198.544Z" fill="white"/>
<path id="Vector_24" d="M271.01 175.312L252.167 179.369C252.167 178.631 251.469 178.262 250.771 177.525L269.614 173.469L271.01 175.312Z" fill="white"/>
<path id="Vector_25" d="M190.75 211.819L183.073 221.775L179.584 221.037L187.261 211.081C188.656 211.45 190.052 211.45 190.75 211.819Z" fill="white"/>
<path id="Vector_26" d="M235.416 155.4L227.739 165.356C227.041 164.987 225.645 164.987 224.25 164.619L231.927 154.662L235.416 155.4Z" fill="white"/>
</g>
<path id="Vector_27" d="M347.083 61H67.9167C60.2396 61 53.9584 64.3187 53.9584 68.375V94.1876H361.042V68.375C361.042 64.3187 354.76 61 347.083 61Z" fill="#3F3D56"/>
<path id="Vector_28" d="M269.614 182.319L286.365 213.663L301.719 205.919L316.375 213.663L329.636 206.656L314.979 198.913L329.636 191.169L269.614 182.319Z" fill="#40596B"/>
<path id="Vector_29" d="M169.114 83.1247C174.896 83.1247 179.583 80.6483 179.583 77.5936C179.583 74.5389 174.896 72.0625 169.114 72.0625C163.333 72.0625 158.646 74.5389 158.646 77.5936C158.646 80.6483 163.333 83.1247 169.114 83.1247Z" fill="#FF7058"/>
<path id="Vector_30" d="M128.635 83.1247C134.417 83.1247 139.104 80.6483 139.104 77.5936C139.104 74.5389 134.417 72.0625 128.635 72.0625C122.854 72.0625 118.167 74.5389 118.167 77.5936C118.167 80.6483 122.854 83.1247 128.635 83.1247Z" fill="#F2F2F2"/>
<path id="Vector_31" d="M88.1563 83.1247C93.9378 83.1247 98.6247 80.6483 98.6247 77.5936C98.6247 74.5389 93.9378 72.0625 88.1563 72.0625C82.3747 72.0625 77.6878 74.5389 77.6878 77.5936C77.6878 80.6483 82.3747 83.1247 88.1563 83.1247Z" fill="#4CD137"/>
<path id="Vector_32" d="M361.042 116.681V138.438C355.458 140.65 348.479 141.756 341.5 141.756C322.656 141.756 308 134.013 308 124.056C308 133.644 292.646 141.756 274.5 141.756C256.355 141.756 241 134.013 241 124.056C241 133.644 225.646 141.756 207.5 141.756C189.355 141.756 174 134.013 174 124.056C174 133.644 159.344 141.756 140.5 141.756C121.657 141.756 107.001 134.013 107.001 124.056C107.001 133.644 91.6462 141.756 73.5006 141.756C65.8234 141.756 59.5422 140.65 53.959 138.438V116.681H361.042Z" fill="#E4EAEF"/>
<path id="Vector_33" d="M107 112.994H40L53.9584 94.1876H115.375L107 112.994Z" fill="#F27A1A"/>
<path id="Vector_34" d="M174 112.994H107L115.375 94.1876H176.792L174 112.994Z" fill="#CDD6E0"/>
<path id="Vector_35" d="M241 112.994H174L176.792 94.1876H238.208L241 112.994Z" fill="#F27A1A"/>
<path id="Vector_36" d="M308 112.994H241L238.208 94.1876H299.625L308 112.994Z" fill="#CDD6E0"/>
<path id="Vector_37" d="M375 112.994H308L299.625 94.1876H361.042L375 112.994Z" fill="#F27A1A"/>
<g id="Group_3">
<path id="Vector_38" d="M107 120.737C107 130.693 121.656 138.437 140.5 138.437C159.343 138.437 174 130.693 174 120.737V112.994H107V120.737Z" fill="#ACB3BA"/>
<path id="Vector_39" d="M241 112.994V120.738C241 130.694 255.657 138.438 274.5 138.438C293.344 138.438 308 130.694 308 120.738V112.994H241Z" fill="#ACB3BA"/>
</g>
<g id="Group_4">
<path id="Vector_40" d="M40 120.737C40 130.693 54.6563 138.437 73.4999 138.437C92.3435 138.437 107 130.693 107 120.737V112.994H40V120.737Z" fill="#F27A1A"/>
<path id="Vector_41" d="M174 120.737C174 130.693 188.656 138.437 207.5 138.437C226.343 138.437 241 130.693 241 120.737V112.994H174V120.737Z" fill="#F27A1A"/>
<path id="Vector_42" d="M308 112.994V120.738C308 130.694 322.656 138.438 341.5 138.438C360.344 138.438 375 130.694 375 120.738V112.994H308Z" fill="#F27A1A"/>
</g>
<path id="Vector_43" d="M207.5 215.875C236.409 215.875 259.844 203.493 259.844 188.219C259.844 172.945 236.409 160.563 207.5 160.563C178.592 160.563 155.157 172.945 155.157 188.219C155.157 203.493 178.592 215.875 207.5 215.875Z" fill="#F27A1A"/>
<g id="Group_5">
<path id="Vector_44" d="M199.125 196.331L197.031 193.013H237.51V176.788H189.354L186.562 170.888H172.604V173.469H183.072L195.635 198.913H238.906V196.332H199.125V196.331ZM232.625 179.737V190.431H196.333L190.75 179.737H232.625Z" fill="white"/>
<path id="Vector_45" d="M206.104 207.762C209.573 207.762 212.386 206.277 212.386 204.444C212.386 202.611 209.573 201.125 206.104 201.125C202.635 201.125 199.823 202.611 199.823 204.444C199.823 206.277 202.635 207.762 206.104 207.762Z" fill="white"/>
<path id="Vector_46" d="M229.135 207.762C232.604 207.762 235.416 206.277 235.416 204.444C235.416 202.611 232.604 201.125 229.135 201.125C225.666 201.125 222.854 202.611 222.854 204.444C222.854 206.277 225.666 207.762 229.135 207.762Z" fill="white"/>
</g>
</g>
</g>
</g>
<defs>
<clipPath id="clip0_0_1">
<rect width="335" height="177" fill="white" transform="translate(40 61)"/>
</clipPath>
</defs>
</svg>
